<?xml version="1.0" standalone="no"?>
<!DOCTYPE svg PUBLIC "-//W3C//DTD SVG 20010904//EN"
 "http://www.w3.org/TR/2001/REC-SVG-20010904/DTD/svg10.dtd">
<svg version="1.0" xmlns="http://www.w3.org/2000/svg"
 width="2408.000000pt" height="2408.000000pt" viewBox="0 0 2408.000000 2408.000000"
 preserveAspectRatio="xMidYMid meet">

<g transform="translate(0.000000,2408.000000) scale(0.100000,-0.100000)"
fill="#000000" stroke="none">
<path d="M7188 21978 c-11 -100 21 -838 48 -1103 8 -88 20 -218 24 -290 5 -71
14 -157 20 -190 5 -33 16 -123 25 -200 15 -146 30 -250 71 -500 37 -223 54
-314 69 -375 7 -30 16 -80 20 -110 3 -30 12 -77 20 -105 7 -27 16 -71 20 -97
3 -26 10 -50 16 -53 5 -4 9 -21 9 -40 0 -19 5 -46 11 -62 6 -15 17 -57 24 -93
7 -36 36 -153 64 -260 29 -107 60 -231 71 -275 10 -44 28 -109 39 -145 64
-211 85 -281 97 -330 14 -57 39 -137 56 -180 9 -22 40 -117 133 -403 19 -59
40 -115 45 -125 6 -9 23 -55 39 -102 45 -133 63 -183 76 -210 7 -14 17 -41 23
-60 6 -19 27 -73 47 -120 20 -47 40 -96 44 -110 5 -14 18 -44 30 -67 11 -23
21 -47 21 -53 0 -11 47 -121 95 -224 13 -28 42 -94 65 -146 22 -52 45 -102 50
-110 6 -8 15 -26 22 -40 6 -14 21 -47 34 -75 39 -88 103 -215 141 -285 8 -14
21 -41 29 -60 9 -19 22 -46 30 -60 7 -14 24 -47 38 -75 14 -27 33 -63 43 -80
58 -98 73 -127 73 -141 0 -9 11 -29 25 -46 14 -16 25 -38 25 -48 0 -9 7 -24
16 -31 15 -13 30 -38 87 -151 13 -26 36 -62 50 -82 15 -19 27 -40 27 -46 0 -6
11 -26 25 -44 14 -18 25 -36 25 -40 0 -11 70 -125 96 -158 13 -16 26 -38 30
-50 3 -13 13 -30 21 -38 21 -22 79 -109 100 -150 10 -19 24 -41 31 -50 11 -13
30 -42 107 -162 25 -38 87 -128 123 -178 23 -30 62 -86 89 -125 66 -96 110
-155 136 -185 13 -14 36 -45 52 -68 75 -109 174 -242 251 -335 27 -34 64 -82
81 -107 18 -25 82 -103 142 -174 112 -130 121 -149 102 -198 -5 -13 -34 -104
-66 -203 -32 -99 -66 -202 -76 -230 -9 -27 -32 -97 -49 -155 -18 -58 -37 -118
-42 -135 -6 -16 -14 -46 -18 -65 -5 -19 -24 -91 -44 -160 -20 -69 -46 -161
-57 -205 -11 -44 -27 -107 -36 -140 -79 -306 -106 -416 -146 -585 -25 -107
-55 -244 -68 -305 -12 -60 -28 -137 -36 -170 -30 -135 -68 -336 -94 -495 -5
-30 -18 -104 -29 -165 -23 -121 -50 -291 -74 -460 -9 -60 -23 -153 -31 -205
-22 -142 -108 -904 -121 -1070 -21 -285 -34 -463 -39 -555 -3 -60 -14 -204
-25 -320 -32 -359 -43 -876 -39 -1922 3 -733 7 -975 16 -984 9 -9 703 -13
2970 -15 2785 -3 3149 0 3173 23 3 3 4 91 3 196 -2 107 2 215 8 245 23 115
-41 1034 -107 1532 -37 279 -91 611 -114 700 -5 19 -12 62 -15 95 -7 56 -31
173 -91 435 -14 58 -29 124 -34 148 -5 23 -13 50 -18 60 -5 9 -12 37 -16 62
-4 25 -13 65 -20 90 -7 25 -23 77 -34 115 -68 235 -98 331 -111 355 -5 9 -12
31 -16 50 -4 19 -11 40 -15 45 -4 6 -17 39 -28 75 -12 36 -30 90 -42 120 -12
30 -32 84 -45 120 -26 75 -39 106 -70 175 -13 28 -35 77 -50 110 -15 33 -45
98 -67 144 -22 46 -44 93 -49 105 -5 12 -13 28 -18 36 -5 8 -28 56 -52 105
-36 74 -113 217 -164 303 -6 9 -28 48 -50 85 -22 38 -49 84 -60 101 -11 18
-29 47 -40 65 -11 18 -32 48 -46 67 -15 18 -32 48 -40 65 -12 29 -11 34 6 43
10 6 26 18 34 26 9 8 32 23 51 32 72 36 142 78 178 106 20 15 57 41 82 55 25
15 64 42 87 60 23 17 70 52 103 77 75 55 221 173 274 220 161 143 399 427 531
634 11 17 27 40 37 50 10 11 18 24 18 28 0 5 27 57 61 115 82 142 199 396 199
432 0 8 9 32 19 55 40 86 87 265 141 541 34 175 42 266 47 546 5 254 3 297
-10 310 -12 12 -41 15 -148 13 -74 -1 -1144 -2 -2379 -4 -1525 -1 -2254 2
-2272 9 -29 11 -25 -9 -48 266 -6 72 -15 155 -20 185 -5 30 -14 98 -20 150 -6
52 -16 115 -21 140 -5 25 -16 88 -24 140 -8 52 -21 133 -30 180 -45 249 -57
312 -71 380 -8 41 -19 91 -24 110 -5 19 -16 71 -26 115 -16 76 -45 200 -64
275 -5 19 -18 71 -29 115 -10 44 -28 114 -40 155 -11 42 -32 121 -46 175 -15
55 -33 123 -41 150 -8 28 -19 66 -23 85 -10 45 -39 135 -57 180 -7 19 -20 60
-28 90 -22 79 -71 232 -107 330 -17 47 -39 110 -49 140 -10 30 -30 87 -45 125
-14 39 -32 88 -40 110 -8 22 -25 69 -38 105 -14 36 -36 94 -50 130 -52 138
-96 246 -111 275 -9 17 -16 35 -16 41 0 6 -13 38 -30 72 -16 34 -30 66 -30 71
0 11 -36 97 -56 133 -7 14 -14 31 -14 37 0 6 -16 44 -35 85 -19 41 -35 78 -35
82 0 4 -15 39 -34 78 -102 210 -146 304 -146 310 0 5 -77 162 -185 376 -10 19
-23 42 -30 50 -7 8 -16 26 -20 40 -4 14 -14 33 -22 42 -8 9 -28 44 -44 78 -16
34 -38 73 -49 87 -11 14 -20 34 -20 43 0 10 -7 23 -15 30 -8 7 -27 35 -40 63
-14 27 -41 77 -61 111 -47 82 -54 95 -84 141 -14 22 -31 51 -38 65 -6 14 -23
43 -37 65 -13 22 -31 54 -39 71 -8 17 -22 36 -30 43 -8 7 -20 28 -26 46 -6 18
-17 36 -25 39 -8 3 -15 13 -15 22 0 9 -13 33 -28 53 -15 20 -51 72 -78 116
-51 81 -77 120 -104 160 -87 127 -110 164 -110 173 0 6 -9 17 -20 25 -10 7
-24 25 -29 40 -6 15 -14 27 -19 27 -8 0 -56 70 -82 119 -7 13 -32 49 -56 78
-24 30 -44 58 -44 63 0 5 -25 37 -55 72 -30 34 -55 67 -55 71 0 5 -22 34 -48
65 -27 31 -64 80 -82 107 -18 28 -54 73 -79 101 -25 28 -67 77 -93 110 -26 32
-75 94 -110 137 -35 43 -74 93 -88 111 -29 38 -176 208 -230 266 -8 8 -28 31
-44 50 -89 108 -434 460 -451 460 -8 0 -15 -17 -17 -42z"/>
<path d="M13099 21965 c-19 -31 -50 -77 -69 -103 -38 -51 -190 -301 -190 -313
0 -3 -6 -11 -13 -18 -8 -6 -33 -49 -56 -96 -24 -47 -47 -88 -52 -90 -4 -3 -30
-49 -58 -103 -27 -53 -64 -124 -83 -157 -42 -75 -198 -395 -283 -580 -20 -44
-45 -96 -56 -116 -10 -20 -19 -42 -19 -48 0 -6 -13 -39 -29 -74 -15 -34 -34
-78 -41 -97 -6 -19 -23 -64 -37 -100 -14 -36 -32 -85 -40 -110 -9 -25 -22 -52
-30 -61 -7 -8 -13 -21 -13 -27 0 -7 -16 -58 -36 -114 -19 -57 -49 -146 -65
-198 -17 -52 -37 -111 -44 -130 -19 -52 -98 -341 -144 -530 -49 -197 -124
-572 -145 -725 -9 -60 -20 -137 -25 -170 -44 -272 -73 -687 -85 -1220 -11
-484 95 -1431 220 -1960 19 -82 42 -186 51 -230 8 -44 19 -88 24 -97 5 -9 16
-50 24 -90 20 -99 114 -426 133 -463 l15 -29 19 24 c33 43 224 352 257 415 8
17 32 57 53 89 21 33 38 64 38 69 0 6 9 20 19 31 11 12 32 46 48 76 16 30 44
82 63 115 18 33 45 83 60 110 15 28 37 68 50 90 26 47 113 220 143 285 11 25
24 52 29 60 5 8 15 30 24 48 8 19 32 70 53 115 21 45 57 127 81 182 23 55 49
114 57 130 8 17 23 53 33 80 10 28 31 82 45 120 59 156 107 294 125 355 11 36
29 90 41 120 11 30 25 69 29 85 5 17 21 68 35 115 14 47 34 119 44 160 35 141
52 205 61 235 5 17 16 59 24 95 80 369 78 357 135 755 46 315 60 439 71 595 5
80 13 179 17 220 5 41 8 266 7 500 0 434 -4 488 -54 880 -15 119 -19 147 -35
280 -13 108 -38 267 -76 480 -5 30 -13 78 -18 105 -5 28 -13 68 -19 90 -6 22
-20 85 -32 140 -36 170 -51 238 -67 295 -8 30 -18 73 -23 95 -4 22 -17 76 -30
120 -12 44 -26 96 -30 116 -3 19 -10 41 -14 48 -4 6 -18 49 -30 94 -14 53 -28
83 -38 85 -9 2 -28 -19 -49 -53z"/>
<path d="M7790 5869 c-47 -4 -105 -12 -130 -18 -25 -5 -67 -15 -95 -22 -27 -6
-62 -20 -77 -30 -14 -11 -33 -19 -41 -19 -35 0 -211 -133 -280 -212 -168 -191
-241 -386 -241 -648 1 -178 17 -243 107 -428 28 -57 59 -108 69 -113 11 -6 65
-57 121 -114 135 -136 197 -174 392 -237 63 -21 89 -23 255 -22 198 0 245 9
400 76 156 67 326 230 405 388 20 41 45 91 55 110 18 35 26 59 56 185 8 34 15
112 16 180 0 99 -4 138 -26 223 -14 56 -32 113 -40 125 -8 12 -19 39 -26 60
-6 20 -27 59 -46 87 -19 27 -34 53 -34 58 0 11 -147 161 -184 187 -15 11 -37
28 -48 38 -12 9 -29 17 -39 17 -10 0 -24 8 -31 18 -16 22 -99 57 -154 66 -23
3 -54 12 -69 20 -26 14 -91 24 -190 29 -22 1 -78 -1 -125 -4z"/>
</g>
</svg>
